TITLE ""
FILE "P1Q_t_0969-0978.mp3" MP3
  TRACK 01 AUDIO
    TITLE "P1Q_t_0969-0978_01"
    INDEX 01 00:00:00
  TRACK 02 AUDIO
    TITLE "P1Q_t_0969-0978_02"
    INDEX 01 00:00:20
  TRACK 03 AUDIO
    TITLE "P1Q_t_0969-0978_03"
    INDEX 01 00:01:65
  TRACK 04 AUDIO
    TITLE "P1Q_t_0969-0978_04"
    INDEX 01 00:02:13
  TRACK 05 AUDIO
    TITLE "P1Q_t_0969-0978_05"
    INDEX 01 00:03:67
  TRACK 06 AUDIO
    TITLE "P1Q_t_0969-0978_06"
    INDEX 01 00:04:14
  TRACK 07 AUDIO
    TITLE "P1Q_t_0969-0978_07"
    INDEX 01 00:08:73
  TRACK 08 AUDIO
    TITLE "P1Q_t_0969-0978_08"
    INDEX 01 00:09:43
  TRACK 09 AUDIO
    TITLE "P1Q_t_0969-0978_09"
    INDEX 01 00:10:52
  TRACK 10 AUDIO
    TITLE "P1Q_t_0969-0978_10"
    INDEX 01 00:10:71
  TRACK 11 AUDIO
    TITLE "P1Q_t_0969-0978_11"
    INDEX 01 00:13:31
  TRACK 12 AUDIO
    TITLE "P1Q_t_0969-0978_12"
    INDEX 01 00:13:50
  TRACK 13 AUDIO
    TITLE "P1Q_t_0969-0978_13"
    INDEX 01 00:18:36
  TRACK 14 AUDIO
    TITLE "P1Q_t_0969-0978_14"
    INDEX 01 00:19:06
  TRACK 15 AUDIO
    TITLE "P1Q_t_0969-0978_15"
    INDEX 01 00:20:37
  TRACK 16 AUDIO
    TITLE "P1Q_t_0969-0978_16"
    INDEX 01 00:20:58
  TRACK 17 AUDIO
    TITLE "P1Q_t_0969-0978_17"
    INDEX 01 00:22:75
  TRACK 18 AUDIO
    TITLE "P1Q_t_0969-0978_18"
    INDEX 01 00:23:19
  TRACK 19 AUDIO
    TITLE "P1Q_t_0969-0978_19"
    INDEX 01 00:27:21
  TRACK 20 AUDIO
    TITLE "P1Q_t_0969-0978_20"
    INDEX 01 00:27:70
  TRACK 21 AUDIO
    TITLE "P1Q_t_0969-0978_21"
    INDEX 01 00:29:06
  TRACK 22 AUDIO
    TITLE "P1Q_t_0969-0978_22"
    INDEX 01 00:29:28
  TRACK 23 AUDIO
    TITLE "P1Q_t_0969-0978_23"
    INDEX 01 00:31:72
  TRACK 24 AUDIO
    TITLE "P1Q_t_0969-0978_24"
    INDEX 01 00:32:16
  TRACK 25 AUDIO
    TITLE "P1Q_t_0969-0978_25"
    INDEX 01 00:37:33
  TRACK 26 AUDIO
    TITLE "P1Q_t_0969-0978_26"
    INDEX 01 00:38:05
  TRACK 27 AUDIO
    TITLE "P1Q_t_0969-0978_27"
    INDEX 01 00:39:18
  TRACK 28 AUDIO
    TITLE "P1Q_t_0969-0978_28"
    INDEX 01 00:39:38
  TRACK 29 AUDIO
    TITLE "P1Q_t_0969-0978_29"
    INDEX 01 00:42:19
  TRACK 30 AUDIO
    TITLE "P1Q_t_0969-0978_30"
    INDEX 01 00:42:38
  TRACK 31 AUDIO
    TITLE "P1Q_t_0969-0978_31"
    INDEX 01 00:46:30
  TRACK 32 AUDIO
    TITLE "P1Q_t_0969-0978_32"
    INDEX 01 00:47:02
  TRACK 33 AUDIO
    TITLE "P1Q_t_0969-0978_33"
    INDEX 01 00:48:09
  TRACK 34 AUDIO
    TITLE "P1Q_t_0969-0978_34"
    INDEX 01 00:48:29
  TRACK 35 AUDIO
    TITLE "P1Q_t_0969-0978_35"
    INDEX 01 00:53:24
  TRACK 36 AUDIO
    TITLE "P1Q_t_0969-0978_36"
    INDEX 01 00:53:44
  TRACK 37 AUDIO
    TITLE "P1Q_t_0969-0978_37"
    INDEX 01 00:57:61
  TRACK 38 AUDIO
    TITLE "P1Q_t_0969-0978_38"
    INDEX 01 00:58:33
  TRACK 39 AUDIO
    TITLE "P1Q_t_0969-0978_39"
    INDEX 01 00:59:58
  TRACK 40 AUDIO
    TITLE "P1Q_t_0969-0978_40"
    INDEX 01 01:00:32
  TRACK 41 AUDIO
    TITLE "P1Q_t_0969-0978_41"
    INDEX 01 01:03:17
  TRACK 42 AUDIO
    TITLE "P1Q_t_0969-0978_42"
    INDEX 01 01:03:36
  TRACK 43 AUDIO
    TITLE "P1Q_t_0969-0978_43"
    INDEX 01 01:08:67
  TRACK 44 AUDIO
    TITLE "P1Q_t_0969-0978_44"
    INDEX 01 01:09:37
  TRACK 45 AUDIO
    TITLE "P1Q_t_0969-0978_45"
    INDEX 01 01:10:58
  TRACK 46 AUDIO
    TITLE "P1Q_t_0969-0978_46"
    INDEX 01 01:11:03
  TRACK 47 AUDIO
    TITLE "P1Q_t_0969-0978_47"
    INDEX 01 01:13:31
  TRACK 48 AUDIO
    TITLE "P1Q_t_0969-0978_48"
    INDEX 01 01:13:50
  TRACK 49 AUDIO
    TITLE "P1Q_t_0969-0978_49"
    INDEX 01 01:17:72
  TRACK 50 AUDIO
    TITLE "P1Q_t_0969-0978_50"
    INDEX 01 01:18:40
  TRACK 51 AUDIO
    TITLE "P1Q_t_0969-0978_51"
    INDEX 01 01:19:61
  TRACK 52 AUDIO
    TITLE "P1Q_t_0969-0978_52"
    INDEX 01 01:20:07
  TRACK 53 AUDIO
    TITLE "P1Q_t_0969-0978_53"
    INDEX 01 01:22:73
  TRACK 54 AUDIO
    TITLE "P1Q_t_0969-0978_54"
    INDEX 01 01:23:19
  TRACK 55 AUDIO
    TITLE "P1Q_t_0969-0978_55"
    INDEX 01 01:27:62
  TRACK 56 AUDIO
    TITLE "P1Q_t_0969-0978_56"
    INDEX 01 01:28:34
  TRACK 57 AUDIO
    TITLE "P1Q_t_0969-0978_57"
    INDEX 01 01:29:38
  TRACK 58 AUDIO
    TITLE "P1Q_t_0969-0978_58"
    INDEX 01 01:29:59
  TRACK 59 AUDIO
    TITLE "P1Q_t_0969-0978_59"
    INDEX 01 01:36:30
  TRACK 60 AUDIO
    TITLE "P1Q_t_0969-0978_60"
    INDEX 01 01:36:49
  TRACK 61 AUDIO
    TITLE "P1Q_t_0969-0978_61"
    INDEX 01 01:41:37
